<svg xmlns="http://www.w3.org/2000/svg" xmlns:xlink="http://www.w3.org/1999/xlink" width="1796pt" height="377pt" viewBox="0 0 1796.2 377"><g id="graph0" class="graph" transform="scale(1 1) rotate(0) translate(21.6 355.4)"><title>G</title><polygon fill="#111" stroke="none" points="-21.6 21.6 -21.6 -355.4 1774.6 -355.4 1774.6 21.6 -21.6 21.6"/><g id="node1" class="node"><title>app.js</title><path fill="none" stroke="#c6c5fe" d="M47.3333,-147.06C47.3333,-147.06 7.66667,-147.06 7.66667,-147.06 3.83333,-147.06 0,-143.227 0,-139.393 0,-139.393 0,-131.727 0,-131.727 0,-127.893 3.83333,-124.06 7.66667,-124.06 7.66667,-124.06 47.3333,-124.06 47.3333,-124.06 51.1667,-124.06 55,-127.893 55,-131.727 55,-131.727 55,-139.393 55,-139.393 55,-143.227 51.1667,-147.06 47.3333,-147.06"/><text x="27.5" y="-131.86" fill="#c6c5fe" font-family="Arial" font-size="14" text-anchor="middle">app.js</text></g><g id="node2" class="node"><title>bootstrap.js</title><path fill="none" stroke="#c6c5fe" d="M174.333,-147.06C174.333,-147.06 98.6667,-147.06 98.6667,-147.06 94.8333,-147.06 91,-143.227 91,-139.393 91,-139.393 91,-131.727 91,-131.727 91,-127.893 94.8333,-124.06 98.6667,-124.06 98.6667,-124.06 174.333,-124.06 174.333,-124.06 178.167,-124.06 182,-127.893 182,-131.727 182,-131.727 182,-139.393 182,-139.393 182,-143.227 178.167,-147.06 174.333,-147.06"/><text x="136.5" y="-131.86" fill="#c6c5fe" font-family="Arial" font-size="14" text-anchor="middle">bootstrap.js</text></g><g id="edge1" class="edge"><title>app.js-&gt;bootstrap.js</title><path fill="none" stroke="#757575" d="M55.2246,-135.56C63.0501,-135.56 71.9053,-135.56 80.8047,-135.56"/><polygon fill="#757575" stroke="#757575" points="80.819 -139.06 90.819 -135.56 80.819 -132.06 80.819 -139.06"/></g><g id="node3" class="node"><title>lib/consts/index.js</title><path fill="none" stroke="#c6c5fe" d="M1503.33,-188.06C1503.33,-188.06 1390.67,-188.06 1390.67,-188.06 1386.83,-188.06 1383,-184.227 1383,-180.393 1383,-180.393 1383,-172.727 1383,-172.727 1383,-168.893 1386.83,-165.06 1390.67,-165.06 1390.67,-165.06 1503.33,-165.06 1503.33,-165.06 1507.17,-165.06 1511,-168.893 1511,-172.727 1511,-172.727 1511,-180.393 1511,-180.393 1511,-184.227 1507.17,-188.06 1503.33,-188.06"/><text x="1447" y="-172.86" fill="#c6c5fe" font-family="Arial" font-size="14" text-anchor="middle">lib/consts/index.js</text></g><g id="edge2" class="edge"><title>bootstrap.js-&gt;lib/consts/index.js</title><path fill="none" stroke="#757575" d="M150.029,-147.239C193.874,-186.839 345.903,-313.56 496,-313.56 496,-313.56 496,-313.56 961.5,-313.56 1133.06,-313.56 1193.28,-369.754 1347,-293.56 1389.23,-272.63 1420.41,-224.656 1435.62,-197.079"/><polygon fill="#757575" stroke="#757575" points="1438.71 -198.724 1440.33 -188.253 1432.53 -195.43 1438.71 -198.724"/></g><g id="node4" class="node"><title>lib/pipelines/pipeline-producer.js</title><path fill="none" stroke="#cfffac" d="M1339.33,-31.0601C1339.33,-31.0601 1134.67,-31.0601 1134.67,-31.0601 1130.83,-31.0601 1127,-27.2268 1127,-23.3935 1127,-23.3935 1127,-15.7268 1127,-15.7268 1127,-11.8935 1130.83,-8.06014 1134.67,-8.06014 1134.67,-8.06014 1339.33,-8.06014 1339.33,-8.06014 1343.17,-8.06014 1347,-11.8935 1347,-15.7268 1347,-15.7268 1347,-23.3935 1347,-23.3935 1347,-27.2268 1343.17,-31.0601 1339.33,-31.0601"/><text x="1237" y="-15.86" fill="#cfffac" font-family="Arial" font-size="14" text-anchor="middle">lib/pipelines/pipeline-producer.js</text></g><g id="edge3" class="edge"><title>bootstrap.js-&gt;lib/pipelines/pipeline-producer.js</title><path fill="none" stroke="#757575" d="M144.474,-123.85C156.699,-104.466 183.963,-66.019 218,-47.5601 328.088,12.1434 370.764,-1.56014 496,-1.56014 496,-1.56014 496,-1.56014 698,-1.56014 842.095,-1.56014 1007.78,-8.08972 1116.77,-13.2835"/><polygon fill="#757575" stroke="#757575" points="1116.66 -16.782 1126.81 -13.766 1116.99 -9.79 1116.66 -16.782"/></g><g id="node5" class="node"><title>lib/pipelines/stored-pipelines-listener.js</title><path fill="none" stroke="#c6c5fe" d="M1083.33,-247.06C1083.33,-247.06 837.667,-247.06 837.667,-247.06 833.833,-247.06 830,-243.227 830,-239.393 830,-239.393 830,-231.727 830,-231.727 830,-227.893 833.833,-224.06 837.667,-224.06 837.667,-224.06 1083.33,-224.06 1083.33,-224.06 1087.17,-224.06 1091,-227.893 1091,-231.727 1091,-231.727 1091,-239.393 1091,-239.393 1091,-243.227 1087.17,-247.06 1083.33,-247.06"/><text x="960.5" y="-231.86" fill="#c6c5fe" font-family="Arial" font-size="14" text-anchor="middle">lib/pipelines/stored-pipelines-listener.js</text></g><g id="edge4" class="edge"><title>bootstrap.js-&gt;lib/pipelines/stored-pipelines-listener.js</title><path fill="none" stroke="#757575" d="M181.21,-147.16C193.098,-150.112 206.003,-153.132 218,-155.56 386.445,-189.645 429.1,-197.431 600,-215.56 672.281,-223.228 753.07,-228.056 819.725,-231.043"/><polygon fill="#757575" stroke="#757575" points="819.732 -234.546 829.875 -231.488 820.039 -227.553 819.732 -234.546"/></g><g id="node6" class="node"><title>lib/queue/trigger-runner.js</title><path fill="none" stroke="#c6c5fe" d="M386.333,-147.06C386.333,-147.06 225.667,-147.06 225.667,-147.06 221.833,-147.06 218,-143.227 218,-139.393 218,-139.393 218,-131.727 218,-131.727 218,-127.893 221.833,-124.06 225.667,-124.06 225.667,-124.06 386.333,-124.06 386.333,-124.06 390.167,-124.06 394,-127.893 394,-131.727 394,-131.727 394,-139.393 394,-139.393 394,-143.227 390.167,-147.06 386.333,-147.06"/><text x="306" y="-131.86" fill="#c6c5fe" font-family="Arial" font-size="14" text-anchor="middle">lib/queue/trigger-runner.js</text></g><g id="edge5" class="edge"><title>bootstrap.js-&gt;lib/queue/trigger-runner.js</title><path fill="none" stroke="#757575" d="M182.387,-135.56C190.413,-135.56 199.052,-135.56 207.894,-135.56"/><polygon fill="#757575" stroke="#757575" points="207.942 -139.06 217.942 -135.56 207.942 -132.06 207.942 -139.06"/></g><g id="node7" class="node"><title>lib/store/store-manager.js</title><path fill="none" stroke="#c6c5fe" d="M1317.33,-129.06C1317.33,-129.06 1156.67,-129.06 1156.67,-129.06 1152.83,-129.06 1149,-125.227 1149,-121.393 1149,-121.393 1149,-113.727 1149,-113.727 1149,-109.893 1152.83,-106.06 1156.67,-106.06 1156.67,-106.06 1317.33,-106.06 1317.33,-106.06 1321.17,-106.06 1325,-109.893 1325,-113.727 1325,-113.727 1325,-121.393 1325,-121.393 1325,-125.227 1321.17,-129.06 1317.33,-129.06"/><text x="1237" y="-113.86" fill="#c6c5fe" font-family="Arial" font-size="14" text-anchor="middle">lib/store/store-manager.js</text></g><g id="edge6" class="edge"><title>bootstrap.js-&gt;lib/store/store-manager.js</title><path fill="none" stroke="#757575" d="M162.528,-123.98C220.079,-98.4472 366.813,-39.5601 496,-39.5601 496,-39.5601 496,-39.5601 698,-39.5601 874.838,-39.5601 1081.02,-81.3442 1178.86,-103.748"/><polygon fill="#757575" stroke="#757575" points="1178.3 -107.211 1188.83 -106.051 1179.88 -100.391 1178.3 -107.211"/></g><g id="node8" class="node"><title>lib/consts/component-name.js</title><path fill="none" stroke="#cfffac" d="M1745.33,-209.06C1745.33,-209.06 1554.67,-209.06 1554.67,-209.06 1550.83,-209.06 1547,-205.227 1547,-201.393 1547,-201.393 1547,-193.727 1547,-193.727 1547,-189.893 1550.83,-186.06 1554.67,-186.06 1554.67,-186.06 1745.33,-186.06 1745.33,-186.06 1749.17,-186.06 1753,-189.893 1753,-193.727 1753,-193.727 1753,-201.393 1753,-201.393 1753,-205.227 1749.17,-209.06 1745.33,-209.06"/><text x="1650" y="-193.86" fill="#cfffac" font-family="Arial" font-size="14" text-anchor="middle">lib/consts/component-name.js</text></g><g id="edge7" class="edge"><title>lib/consts/index.js-&gt;lib/consts/component-name.js</title><path fill="none" stroke="#757575" d="M1511.05,-183.147C1519.33,-184.012 1528,-184.919 1536.8,-185.838"/><polygon fill="#757575" stroke="#757575" points="1536.46 -189.322 1546.77 -186.88 1537.19 -182.36 1536.46 -189.322"/></g><g id="node9" class="node"><title>lib/consts/types.js</title><path fill="none" stroke="#cfffac" d="M1706.83,-168.06C1706.83,-168.06 1593.17,-168.06 1593.17,-168.06 1589.33,-168.06 1585.5,-164.227 1585.5,-160.393 1585.5,-160.393 1585.5,-152.727 1585.5,-152.727 1585.5,-148.893 1589.33,-145.06 1593.17,-145.06 1593.17,-145.06 1706.83,-145.06 1706.83,-145.06 1710.67,-145.06 1714.5,-148.893 1714.5,-152.727 1714.5,-152.727 1714.5,-160.393 1714.5,-160.393 1714.5,-164.227 1710.67,-168.06 1706.83,-168.06"/><text x="1650" y="-152.86" fill="#cfffac" font-family="Arial" font-size="14" text-anchor="middle">lib/consts/types.js</text></g><g id="edge8" class="edge"><title>lib/consts/index.js-&gt;lib/consts/types.js</title><path fill="none" stroke="#757575" d="M1511.05,-170.287C1531.43,-168.259 1554.21,-165.992 1575.29,-163.894"/><polygon fill="#757575" stroke="#757575" points="1575.88 -167.353 1585.49 -162.88 1575.19 -160.387 1575.88 -167.353"/></g><g id="edge9" class="edge"><title>lib/pipelines/stored-pipelines-listener.js-&gt;lib/consts/index.js</title><path fill="none" stroke="#757575" d="M1091.07,-235.009C1166.38,-232.659 1262.76,-226.159 1347,-209.56 1367.64,-205.493 1389.93,-198.325 1408.12,-191.706"/><polygon fill="#757575" stroke="#757575" points="1409.35 -194.983 1417.5 -188.212 1406.91 -188.424 1409.35 -194.983"/></g><g id="edge10" class="edge"><title>lib/pipelines/stored-pipelines-listener.js-&gt;lib/store/store-manager.js</title><path fill="none" stroke="#757575" d="M988.32,-224.031C1037.83,-202.75 1143.6,-157.28 1199.55,-133.227"/><polygon fill="#757575" stroke="#757575" points="1201.27 -136.301 1209.07 -129.136 1198.5 -129.87 1201.27 -136.301"/></g><g id="node10" class="node"><title>lib/triggers/Trigger.js</title><path fill="none" stroke="#cfffac" d="M1301.83,-285.06C1301.83,-285.06 1172.17,-285.06 1172.17,-285.06 1168.33,-285.06 1164.5,-281.227 1164.5,-277.393 1164.5,-277.393 1164.5,-269.727 1164.5,-269.727 1164.5,-265.893 1168.33,-262.06 1172.17,-262.06 1172.17,-262.06 1301.83,-262.06 1301.83,-262.06 1305.67,-262.06 1309.5,-265.893 1309.5,-269.727 1309.5,-269.727 1309.5,-277.393 1309.5,-277.393 1309.5,-281.227 1305.67,-285.06 1301.83,-285.06"/><text x="1237" y="-269.86" fill="#cfffac" font-family="Arial" font-size="14" text-anchor="middle">lib/triggers/Trigger.js</text></g><g id="edge11" class="edge"><title>lib/pipelines/stored-pipelines-listener.js-&gt;lib/triggers/Trigger.js</title><path fill="none" stroke="#757575" d="M1044.6,-247.065C1079.36,-251.876 1119.63,-257.451 1154.24,-262.242"/><polygon fill="#757575" stroke="#757575" points="1153.93 -265.733 1164.32 -263.637 1154.89 -258.799 1153.93 -265.733"/></g><g id="node11" class="node"><title>lib/queue/trigger-queue.js</title><path fill="none" stroke="#c6c5fe" d="M1041.33,-167.06C1041.33,-167.06 879.667,-167.06 879.667,-167.06 875.833,-167.06 872,-163.227 872,-159.393 872,-159.393 872,-151.727 872,-151.727 872,-147.893 875.833,-144.06 879.667,-144.06 879.667,-144.06 1041.33,-144.06 1041.33,-144.06 1045.17,-144.06 1049,-147.893 1049,-151.727 1049,-151.727 1049,-159.393 1049,-159.393 1049,-163.227 1045.17,-167.06 1041.33,-167.06"/><text x="960.5" y="-151.86" fill="#c6c5fe" font-family="Arial" font-size="14" text-anchor="middle">lib/queue/trigger-queue.js</text></g><g id="edge14" class="edge"><title>lib/queue/trigger-runner.js-&gt;lib/queue/trigger-queue.js</title><path fill="none" stroke="#757575" d="M394.322,-138.237C515.788,-141.96 735.065,-148.681 861.823,-152.566"/><polygon fill="#757575" stroke="#757575" points="861.812 -156.067 871.914 -152.876 862.026 -149.071 861.812 -156.067"/></g><g id="node12" class="node"><title>lib/triggers/index.js</title><path fill="none" stroke="#c6c5fe" d="M556.333,-127.06C556.333,-127.06 437.667,-127.06 437.667,-127.06 433.833,-127.06 430,-123.227 430,-119.393 430,-119.393 430,-111.727 430,-111.727 430,-107.893 433.833,-104.06 437.667,-104.06 437.667,-104.06 556.333,-104.06 556.333,-104.06 560.167,-104.06 564,-107.893 564,-111.727 564,-111.727 564,-119.393 564,-119.393 564,-123.227 560.167,-127.06 556.333,-127.06"/><text x="497" y="-111.86" fill="#c6c5fe" font-family="Arial" font-size="14" text-anchor="middle">lib/triggers/index.js</text></g><g id="edge15" class="edge"><title>lib/queue/trigger-runner.js-&gt;lib/triggers/index.js</title><path fill="none" stroke="#757575" d="M394.032,-126.35C402.573,-125.447 411.195,-124.534 419.618,-123.643"/><polygon fill="#757575" stroke="#757575" points="420.198 -127.101 429.775 -122.568 419.462 -120.14 420.198 -127.101"/></g><g id="edge16" class="edge"><title>lib/store/store-manager.js-&gt;lib/consts/index.js</title><path fill="none" stroke="#757575" d="M1290.36,-129.069C1308.4,-133.293 1328.67,-138.329 1347,-143.56 1365.79,-148.921 1386.31,-155.621 1403.78,-161.58"/><polygon fill="#757575" stroke="#757575" points="1403.08 -165.041 1413.67 -164.988 1405.36 -158.422 1403.08 -165.041"/></g><g id="edge12" class="edge"><title>lib/queue/trigger-queue.js-&gt;lib/consts/index.js</title><path fill="none" stroke="#757575" d="M1049.24,-159.363C1141.83,-163.376 1286.12,-169.63 1372.81,-173.388"/><polygon fill="#757575" stroke="#757575" points="1372.68 -176.886 1382.83 -173.822 1372.99 -169.892 1372.68 -176.886"/></g><g id="edge13" class="edge"><title>lib/queue/trigger-queue.js-&gt;lib/pipelines/pipeline-producer.js</title><path fill="none" stroke="#757575" d="M984.904,-143.965C1033.93,-119.676 1147.49,-63.4101 1203.53,-35.6466"/><polygon fill="#757575" stroke="#757575" points="1205.25 -38.702 1212.66 -31.126 1202.14 -32.429 1205.25 -38.702"/></g><g id="node13" class="node"><title>lib/triggers/cron-trigger.js</title><path fill="none" stroke="#c6c5fe" d="M775.833,-207.06C775.833,-207.06 618.167,-207.06 618.167,-207.06 614.333,-207.06 610.5,-203.227 610.5,-199.393 610.5,-199.393 610.5,-191.727 610.5,-191.727 610.5,-187.893 614.333,-184.06 618.167,-184.06 618.167,-184.06 775.833,-184.06 775.833,-184.06 779.667,-184.06 783.5,-187.893 783.5,-191.727 783.5,-191.727 783.5,-199.393 783.5,-199.393 783.5,-203.227 779.667,-207.06 775.833,-207.06"/><text x="697" y="-191.86" fill="#c6c5fe" font-family="Arial" font-size="14" text-anchor="middle">lib/triggers/cron-trigger.js</text></g><g id="edge20" class="edge"><title>lib/triggers/index.js-&gt;lib/triggers/cron-trigger.js</title><path fill="none" stroke="#757575" d="M526.791,-127.193C561.496,-141.215 619.919,-164.82 658.219,-180.295"/><polygon fill="#757575" stroke="#757575" points="656.913 -183.542 667.496 -184.043 659.535 -177.052 656.913 -183.542"/></g><g id="node14" class="node"><title>lib/triggers/pipeline-trigger.js</title><path fill="none" stroke="#c6c5fe" d="M786.333,-127.06C786.333,-127.06 607.667,-127.06 607.667,-127.06 603.833,-127.06 600,-123.227 600,-119.393 600,-119.393 600,-111.727 600,-111.727 600,-107.893 603.833,-104.06 607.667,-104.06 607.667,-104.06 786.333,-104.06 786.333,-104.06 790.167,-104.06 794,-107.893 794,-111.727 794,-111.727 794,-119.393 794,-119.393 794,-123.227 790.167,-127.06 786.333,-127.06"/><text x="697" y="-111.86" fill="#c6c5fe" font-family="Arial" font-size="14" text-anchor="middle">lib/triggers/pipeline-trigger.js</text></g><g id="edge21" class="edge"><title>lib/triggers/index.js-&gt;lib/triggers/pipeline-trigger.js</title><path fill="none" stroke="#757575" d="M564.206,-115.56C572.448,-115.56 581.032,-115.56 589.691,-115.56"/><polygon fill="#757575" stroke="#757575" points="589.874 -119.06 599.874 -115.56 589.874 -112.06 589.874 -119.06"/></g><g id="edge17" class="edge"><title>lib/triggers/cron-trigger.js-&gt;lib/consts/index.js</title><path fill="none" stroke="#757575" d="M783.587,-194.501C907.761,-192.786 1145.12,-188.834 1347,-181.56 1355.34,-181.26 1364.08,-180.893 1372.76,-180.497"/><polygon fill="#757575" stroke="#757575" points="1373.08 -183.986 1382.9 -180.02 1372.75 -176.994 1373.08 -183.986"/></g><g id="edge18" class="edge"><title>lib/triggers/cron-trigger.js-&gt;lib/pipelines/stored-pipelines-listener.js</title><path fill="none" stroke="#757575" d="M773.286,-207.076C804.872,-211.908 841.76,-217.55 874.333,-222.533"/><polygon fill="#757575" stroke="#757575" points="873.879 -226.004 884.293 -224.056 874.937 -219.084 873.879 -226.004"/></g><g id="edge19" class="edge"><title>lib/triggers/cron-trigger.js-&gt;lib/queue/trigger-queue.js</title><path fill="none" stroke="#757575" d="M773.286,-184.044C804.872,-179.213 841.76,-173.57 874.333,-168.588"/><polygon fill="#757575" stroke="#757575" points="874.937 -172.036 884.293 -167.064 873.879 -165.116 874.937 -172.036"/></g><g id="edge22" class="edge"><title>lib/triggers/pipeline-trigger.js-&gt;lib/consts/index.js</title><path fill="none" stroke="#757575" d="M740.619,-104.039C846.803,-77.487 1130.2,-19.912 1347,-96.5601 1380.91,-108.548 1411.71,-137.627 1429.66,-157.221"/><polygon fill="#757575" stroke="#757575" points="1427.28 -159.808 1436.53 -164.96 1432.51 -155.159 1427.28 -159.808"/></g><g id="edge24" class="edge"><title>lib/triggers/pipeline-trigger.js-&gt;lib/store/store-manager.js</title><path fill="none" stroke="#757575" d="M794.184,-115.918C891.39,-116.279 1040.81,-116.835 1138.49,-117.198"/><polygon fill="#757575" stroke="#757575" points="1138.65 -120.698 1148.66 -117.235 1138.67 -113.698 1138.65 -120.698"/></g><g id="edge23" class="edge"><title>lib/triggers/pipeline-trigger.js-&gt;lib/queue/trigger-queue.js</title><path fill="none" stroke="#757575" d="M773.286,-127.076C804.872,-131.908 841.76,-137.55 874.333,-142.533"/><polygon fill="#757575" stroke="#757575" points="873.879 -146.004 884.293 -144.056 874.937 -139.084 873.879 -146.004"/></g></g></svg>